# xmcd
# 
# Track frame offsets:
#     150
#     12644
#     25279
#     37488
#     50318
#     62276
#     71749
#     84006
#     97027
#     107286
#     121365
#     136349
# 
# Disc length: 1990
# 
# Revision: 2
# Processed by: cddbd v1.5.2PL0 Copyright (c) Steve Scherf et al.
# Submitted via: fre:ac v1.0.27
# 
DISCID=9c07c40c
DTITLE=Various Artist - Blues Chicago Style: Volume Two
DYEAR=2004
DGENRE=Blues
TTITLE0=Jimmy Reed - Honest I Do
TTITLE1=Jimmy Reed - Bright Lights Big City
TTITLE2=Billy Boy Arnold - I Wish You Would
TTITLE3=Billy Boy Arnold - I Was Fooled
TTITLE4=Lillian Offit - Will My Man Be Home Tonight?
TTITLE5=Memphis Slim - Rockin' The House
TTITLE6=Memphis Slim - Wish Me Well
TTITLE7=Tampa Red - Please Mr Doctor
TTITLE8=J.B. Hutto - Combination Boogie
TTITLE9=J.B Hutto - Things Are So Slow
TTITLE10=Elmore James - It Hurts Me Too
TTITLE11=Elmore James - Dust My Broom
EXTD=YEAR: 2004
EXTT0=
EXTT1=
EXTT2=
EXTT3=
EXTT4=
EXTT5=
EXTT6=
EXTT7=
EXTT8=
EXTT9=
EXTT10=
EXTT11=
PLAYORDER=
